<svg version="1.2" xmlns="http://www.w3.org/2000/svg" viewBox="0 0 229 45" width="229" height="45"><style>.a{fill:#04bb8d}</style><path class="a" d="m51-1.2l-3.1 10.2-14.4 36h-11.7l21.9-46.2zm8.3 46.2h-11l-2.1-37.1 0.3-9.1h7zm-27.3-17.2h19.5l-1.5 8.6h-19.5zm32.9 8.6h18.9l-1.5 8.6h-18.9zm-0.3-37.7h10.6l-8.1 46.3h-10.5zm30.2 46.2h-8.9l1.6-8.6 7.7 0.1q3.3 0 5.2-1.6 1.8-1.6 2.7-4.2 0.8-2.6 1.3-5.4l0.9-7.1q0.3-1.5 0.4-3.3 0.2-1.9-0.1-3.5-0.2-1.7-1.3-2.8-1-1.1-3.2-1.2h-8.8l1.5-8.6h7.7q4.1 0.1 7.1 1.7 3 1.6 4.8 4.3 1.8 2.8 2.5 6.2 0.7 3.5 0.2 7.3l-1 7.1q-0.6 4.1-2.1 7.6-1.6 3.6-4.2 6.3-2.6 2.7-6.1 4.2-3.5 1.5-7.9 1.5zm-5.2-46.2h10.6l-8 46.2h-10.6zm58.2 19.4l-1.1 7q-0.6 4-2 7.8-1.4 3.6-3.8 6.5-2.4 2.9-5.8 4.6-3.4 1.6-7.9 1.5-4.2-0.1-7.1-1.8-2.8-1.8-4.5-4.6-1.6-2.9-2.1-6.5-0.5-3.6 0-7.3l1-7q0.6-4 2-7.6 1.5-3.7 3.9-6.6 2.4-2.9 5.8-4.5 3.4-1.7 7.9-1.6 4.1 0.1 7 1.8 2.8 1.8 4.4 4.6 1.7 2.9 2.2 6.5 0.5 3.5 0.1 7.2zm-11.8 7.2l1.1-7.1q0.1-1.4 0.3-3.2 0.2-2 0-3.8-0.2-1.8-1.1-3.1-0.9-1.3-2.9-1.4-2.5-0.1-3.9 1-1.5 1.1-2.3 2.9-0.9 1.7-1.3 3.8-0.4 2-0.6 3.9l-1.1 7q-0.1 1.4-0.4 3.3-0.2 1.9 0 3.7 0.2 1.9 1.1 3.2 0.9 1.3 3 1.4 2.3 0.1 3.8-1 1.5-1.1 2.3-3 0.9-1.8 1.3-3.8 0.5-2.1 0.7-3.8zm33.2 19.6l-4.1-46.2h8.3l1.4 32 12.6-32h8.9l-20.1 46.2zm-17.5 0l8-46.2h8.9l-4.6 35.9-1.8 10.3zm33.1-11.3l7.7-34.9h9l-8 46.2h-10.7zm10.4 6.4q-0.1-2.5 1.6-4 1.7-1.6 4.1-1.6 2.3 0 4 1.4 1.7 1.5 1.7 3.8 0.1 2.5-1.6 4-1.7 1.6-4.1 1.6-2.3 0-4-1.4-1.7-1.5-1.7-3.8z"/></svg>